<svg version="1.0" xmlns="http://www.w3.org/2000/svg"
 width="130.000000pt" height="130.000000pt" viewBox="0 0 130.000000 130.000000"
 preserveAspectRatio="xMidYMid meet">
<rect width="100%" height="100%" fill="#FFFFFF" /> 
<g transform="translate(0.000000,130.000000) scale(0.100000,-0.100000)"
fill="#000000" stroke="none">
<path d="M719 1254 c-13 -12 -57 -15 -273 -15 -177 0 -262 3 -271 11 -16 13
-21 -10 -28 -115 -3 -45 -2 -54 5 -35 23 61 45 95 68 107 34 17 164 17 179 0
7 -9 12 -97 13 -253 l3 -239 28 47 c27 46 27 47 27 240 0 138 3 197 12 206 7
7 43 12 91 12 72 0 81 -2 106 -28 17 -16 31 -45 36 -72 9 -42 9 -39 15 50 3
52 5 96 5 97 -1 2 -8 -4 -16 -13z"/>
<path d="M840 957 c-47 -67 -110 -158 -141 -202 -31 -44 -97 -138 -148 -210
-219 -310 -291 -418 -286 -424 4 -3 10 1 15 9 5 8 52 76 105 150 52 74 111
158 130 185 19 28 72 102 116 165 223 316 309 439 309 444 0 20 -25 -9 -100
-117z"/>
<path d="M1035 696 c24 -7 41 -19 43 -29 3 -16 -191 -521 -208 -540 -4 -4 -49
84 -100 197 l-94 205 -17 -29 -18 -29 97 -215 c90 -200 112 -236 125 -203 88
227 244 597 258 612 11 11 34 25 52 31 27 10 17 11 -73 12 -96 0 -102 -1 -65
-12z"/>
<path d="M313 573 c9 -2 25 -2 35 0 9 3 1 5 -18 5 -19 0 -27 -2 -17 -5z"/>
</g>
</svg>
